<mxfile host="app.diagrams.net" modified="2023-02-10T16:57:45.749Z" agent="5.0 (Windows NT 10.0; Win64; x64) AppleWebKit/537.36 (KHTML, like Gecko) Chrome/109.0.0.0 Safari/537.36" etag="JSeAMPd8L6d5n2JpAyZo" version="20.8.19" type="github">
  <diagram id="EijaFWclXzNpHAFsAF2D" name="第 1 页">
    <mxGraphModel dx="1050" dy="558" grid="1" gridSize="10" guides="1" tooltips="1" connect="1" arrows="1" fold="1" page="1" pageScale="1" pageWidth="827" pageHeight="1169" math="0" shadow="0">
      <root>
        <mxCell id="0" />
        <mxCell id="1" parent="0" />
        <mxCell id="QYrEDv9TqQ3OovLWhWfL-5" value="" style="edgeStyle=orthogonalEdgeStyle;rounded=1;orthogonalLoop=1;jettySize=auto;html=1;labelBackgroundColor=none;strokeColor=#000000;fontColor=default;" edge="1" parent="1" source="QYrEDv9TqQ3OovLWhWfL-3" target="QYrEDv9TqQ3OovLWhWfL-4">
          <mxGeometry relative="1" as="geometry" />
        </mxCell>
        <mxCell id="QYrEDv9TqQ3OovLWhWfL-34" value="RPC/RestFul" style="edgeLabel;align=center;verticalAlign=middle;resizable=0;points=[];fontSize=12;fontFamily=Architects Daughter;fontColor=#182E3E;html=1;fontStyle=1" vertex="1" connectable="0" parent="QYrEDv9TqQ3OovLWhWfL-5">
          <mxGeometry x="-0.304" y="-1" relative="1" as="geometry">
            <mxPoint x="1" y="51" as="offset" />
          </mxGeometry>
        </mxCell>
        <mxCell id="QYrEDv9TqQ3OovLWhWfL-14" style="edgeStyle=orthogonalEdgeStyle;hachureGap=4;orthogonalLoop=1;jettySize=auto;html=1;entryX=0.5;entryY=0;entryDx=0;entryDy=0;strokeColor=#000000;fontFamily=Architects Daughter;fontSource=https%3A%2F%2Ffonts.googleapis.com%2Fcss%3Ffamily%3DArchitects%2BDaughter;fontSize=16;fontColor=#FFFFFF;dashed=1;rounded=0;dashPattern=8 8;shadow=0;exitX=0.5;exitY=0;exitDx=0;exitDy=0;" edge="1" parent="1" source="QYrEDv9TqQ3OovLWhWfL-47" target="QYrEDv9TqQ3OovLWhWfL-11">
          <mxGeometry relative="1" as="geometry">
            <mxPoint x="380" y="141" as="sourcePoint" />
            <Array as="points">
              <mxPoint x="390" y="90" />
              <mxPoint x="770" y="90" />
            </Array>
          </mxGeometry>
        </mxCell>
        <mxCell id="QYrEDv9TqQ3OovLWhWfL-27" value="全局事务begin" style="edgeLabel;html=1;align=center;verticalAlign=middle;resizable=0;points=[];fontSize=12;fontFamily=Architects Daughter;fontColor=#182E3E;fontStyle=1" vertex="1" connectable="0" parent="QYrEDv9TqQ3OovLWhWfL-14">
          <mxGeometry x="-0.1198" y="1" relative="1" as="geometry">
            <mxPoint as="offset" />
          </mxGeometry>
        </mxCell>
        <mxCell id="QYrEDv9TqQ3OovLWhWfL-23" style="edgeStyle=orthogonalEdgeStyle;rounded=1;hachureGap=4;orthogonalLoop=1;jettySize=auto;html=1;strokeColor=#000000;fontFamily=Architects Daughter;fontSource=https%3A%2F%2Ffonts.googleapis.com%2Fcss%3Ffamily%3DArchitects%2BDaughter;fontSize=16;fontColor=#FFFFFF;entryX=-0.027;entryY=0.073;entryDx=0;entryDy=0;entryPerimeter=0;" edge="1" parent="1" source="QYrEDv9TqQ3OovLWhWfL-3" target="QYrEDv9TqQ3OovLWhWfL-11">
          <mxGeometry relative="1" as="geometry">
            <mxPoint x="570" y="171" as="targetPoint" />
          </mxGeometry>
        </mxCell>
        <mxCell id="QYrEDv9TqQ3OovLWhWfL-26" value="分支事务提交/回滚" style="edgeLabel;html=1;align=center;verticalAlign=middle;resizable=0;points=[];fontSize=12;fontFamily=Architects Daughter;fontColor=#182E3E;fontStyle=1" vertex="1" connectable="0" parent="QYrEDv9TqQ3OovLWhWfL-23">
          <mxGeometry x="-0.2275" y="3" relative="1" as="geometry">
            <mxPoint x="18" y="3" as="offset" />
          </mxGeometry>
        </mxCell>
        <mxCell id="QYrEDv9TqQ3OovLWhWfL-3" value="Order" style="rounded=1;whiteSpace=wrap;html=1;sketch=1;curveFitting=1;jiggle=2;labelBackgroundColor=none;fillColor=#B1DDF0;strokeColor=#BAC8D3;fontColor=#182E3E;" vertex="1" parent="1">
          <mxGeometry x="290" y="141" width="120" height="60" as="geometry" />
        </mxCell>
        <object label="" id="QYrEDv9TqQ3OovLWhWfL-7">
          <mxCell style="edgeStyle=orthogonalEdgeStyle;rounded=1;orthogonalLoop=1;jettySize=auto;html=1;labelBackgroundColor=none;strokeColor=#000000;fontColor=default;" edge="1" parent="1" source="QYrEDv9TqQ3OovLWhWfL-4" target="QYrEDv9TqQ3OovLWhWfL-6">
            <mxGeometry relative="1" as="geometry" />
          </mxCell>
        </object>
        <mxCell id="QYrEDv9TqQ3OovLWhWfL-35" value="RPC/RestFul" style="edgeLabel;html=1;align=center;verticalAlign=middle;resizable=0;points=[];fontSize=12;fontFamily=Architects Daughter;fontColor=#182E3E;fontStyle=1" vertex="1" connectable="0" parent="QYrEDv9TqQ3OovLWhWfL-7">
          <mxGeometry x="0.2622" y="2" relative="1" as="geometry">
            <mxPoint x="-2" y="25" as="offset" />
          </mxGeometry>
        </mxCell>
        <mxCell id="QYrEDv9TqQ3OovLWhWfL-38" style="edgeStyle=orthogonalEdgeStyle;rounded=1;hachureGap=4;orthogonalLoop=1;jettySize=auto;html=1;exitX=1;exitY=0.5;exitDx=0;exitDy=0;entryX=0.012;entryY=0.475;entryDx=0;entryDy=0;entryPerimeter=0;strokeColor=#000000;fontFamily=Architects Daughter;fontSource=https%3A%2F%2Ffonts.googleapis.com%2Fcss%3Ffamily%3DArchitects%2BDaughter;fontSize=12;fontColor=#FFFFFF;" edge="1" parent="1" source="QYrEDv9TqQ3OovLWhWfL-4" target="QYrEDv9TqQ3OovLWhWfL-11">
          <mxGeometry relative="1" as="geometry">
            <mxPoint x="707.5999999999999" y="370.03" as="targetPoint" />
          </mxGeometry>
        </mxCell>
        <mxCell id="QYrEDv9TqQ3OovLWhWfL-41" value="分支事务提交/回滚" style="edgeLabel;html=1;align=center;verticalAlign=middle;resizable=0;points=[];fontSize=12;fontFamily=Architects Daughter;fontColor=#182E3E;fontStyle=1" vertex="1" connectable="0" parent="QYrEDv9TqQ3OovLWhWfL-38">
          <mxGeometry x="-0.142" relative="1" as="geometry">
            <mxPoint as="offset" />
          </mxGeometry>
        </mxCell>
        <mxCell id="QYrEDv9TqQ3OovLWhWfL-4" value="Stock" style="whiteSpace=wrap;html=1;rounded=1;sketch=1;curveFitting=1;jiggle=2;labelBackgroundColor=none;fillColor=#B1DDF0;strokeColor=#BAC8D3;fontColor=#182E3E;" vertex="1" parent="1">
          <mxGeometry x="290" y="318.5" width="120" height="60" as="geometry" />
        </mxCell>
        <mxCell id="QYrEDv9TqQ3OovLWhWfL-36" style="edgeStyle=orthogonalEdgeStyle;rounded=1;hachureGap=4;orthogonalLoop=1;jettySize=auto;html=1;entryX=-0.013;entryY=0.893;entryDx=0;entryDy=0;entryPerimeter=0;strokeColor=#000000;fontFamily=Architects Daughter;fontSource=https%3A%2F%2Ffonts.googleapis.com%2Fcss%3Ffamily%3DArchitects%2BDaughter;fontSize=12;fontColor=#FFFFFF;" edge="1" parent="1" source="QYrEDv9TqQ3OovLWhWfL-6">
          <mxGeometry relative="1" as="geometry">
            <mxPoint x="708.44" y="540.595" as="targetPoint" />
            <Array as="points">
              <mxPoint x="708" y="530" />
            </Array>
          </mxGeometry>
        </mxCell>
        <mxCell id="QYrEDv9TqQ3OovLWhWfL-37" value="分支事务提交/回滚" style="edgeLabel;html=1;align=center;verticalAlign=middle;resizable=0;points=[];fontSize=12;fontFamily=Architects Daughter;fontColor=#182E3E;fontStyle=1" vertex="1" connectable="0" parent="QYrEDv9TqQ3OovLWhWfL-36">
          <mxGeometry x="-0.2358" y="-2" relative="1" as="geometry">
            <mxPoint x="17" y="-2" as="offset" />
          </mxGeometry>
        </mxCell>
        <mxCell id="QYrEDv9TqQ3OovLWhWfL-6" value="Account" style="whiteSpace=wrap;html=1;rounded=1;sketch=1;curveFitting=1;jiggle=2;labelBackgroundColor=none;fillColor=#B1DDF0;strokeColor=#BAC8D3;fontColor=#182E3E;" vertex="1" parent="1">
          <mxGeometry x="290" y="500" width="120" height="60" as="geometry" />
        </mxCell>
        <mxCell id="QYrEDv9TqQ3OovLWhWfL-13" style="edgeStyle=orthogonalEdgeStyle;rounded=0;sketch=1;hachureGap=4;jiggle=2;curveFitting=1;orthogonalLoop=1;jettySize=auto;html=1;exitX=0;exitY=0.5;exitDx=0;exitDy=0;entryX=0;entryY=0.75;entryDx=0;entryDy=0;strokeColor=#EEEEEE;fontFamily=Architects Daughter;fontSource=https%3A%2F%2Ffonts.googleapis.com%2Fcss%3Ffamily%3DArchitects%2BDaughter;fontSize=16;fontColor=#FFFFFF;" edge="1" parent="1" source="QYrEDv9TqQ3OovLWhWfL-3" target="QYrEDv9TqQ3OovLWhWfL-3">
          <mxGeometry relative="1" as="geometry" />
        </mxCell>
        <mxCell id="QYrEDv9TqQ3OovLWhWfL-64" style="edgeStyle=orthogonalEdgeStyle;rounded=0;sketch=0;hachureGap=4;jiggle=2;curveFitting=1;orthogonalLoop=1;jettySize=auto;html=1;exitX=0;exitY=0.25;exitDx=0;exitDy=0;entryX=0.5;entryY=1;entryDx=0;entryDy=0;shadow=0;strokeColor=#000000;fontFamily=Architects Daughter;fontSource=https%3A%2F%2Ffonts.googleapis.com%2Fcss%3Ffamily%3DArchitects%2BDaughter;fontSize=12;fontColor=#FFFFFF;dashed=1;dashPattern=8 8;" edge="1" parent="1" source="QYrEDv9TqQ3OovLWhWfL-47" target="QYrEDv9TqQ3OovLWhWfL-11">
          <mxGeometry relative="1" as="geometry">
            <Array as="points">
              <mxPoint x="210" y="119" />
              <mxPoint x="210" y="650" />
              <mxPoint x="767" y="650" />
            </Array>
          </mxGeometry>
        </mxCell>
        <mxCell id="QYrEDv9TqQ3OovLWhWfL-65" value="全局事务end" style="edgeLabel;html=1;align=center;verticalAlign=middle;resizable=0;points=[];fontSize=12;fontFamily=Architects Daughter;fontColor=#182E3E;" vertex="1" connectable="0" parent="QYrEDv9TqQ3OovLWhWfL-64">
          <mxGeometry x="0.5028" relative="1" as="geometry">
            <mxPoint as="offset" />
          </mxGeometry>
        </mxCell>
        <mxCell id="QYrEDv9TqQ3OovLWhWfL-47" value="TM" style="rounded=0;whiteSpace=wrap;html=1;labelBorderColor=default;sketch=1;hachureGap=4;jiggle=2;curveFitting=1;fontFamily=Architects Daughter;fontSource=https%3A%2F%2Ffonts.googleapis.com%2Fcss%3Ffamily%3DArchitects%2BDaughter;fontSize=12;" vertex="1" parent="1">
          <mxGeometry x="370" y="111" width="40" height="30" as="geometry" />
        </mxCell>
        <mxCell id="QYrEDv9TqQ3OovLWhWfL-54" style="edgeStyle=orthogonalEdgeStyle;rounded=0;sketch=0;hachureGap=4;jiggle=2;curveFitting=1;orthogonalLoop=1;jettySize=auto;html=1;exitX=0.5;exitY=1;exitDx=0;exitDy=0;entryX=0.51;entryY=0.28;entryDx=0;entryDy=0;entryPerimeter=0;shadow=0;strokeColor=#000000;fontFamily=Architects Daughter;fontSource=https%3A%2F%2Ffonts.googleapis.com%2Fcss%3Ffamily%3DArchitects%2BDaughter;fontSize=12;fontColor=#FFFFFF;" edge="1" parent="1" source="QYrEDv9TqQ3OovLWhWfL-50" target="QYrEDv9TqQ3OovLWhWfL-53">
          <mxGeometry relative="1" as="geometry" />
        </mxCell>
        <mxCell id="QYrEDv9TqQ3OovLWhWfL-50" value="RM" style="rounded=0;whiteSpace=wrap;html=1;labelBorderColor=default;sketch=1;hachureGap=4;jiggle=2;curveFitting=1;fontFamily=Architects Daughter;fontSource=https%3A%2F%2Ffonts.googleapis.com%2Fcss%3Ffamily%3DArchitects%2BDaughter;fontSize=12;" vertex="1" parent="1">
          <mxGeometry x="290" y="180" width="40" height="30" as="geometry" />
        </mxCell>
        <mxCell id="QYrEDv9TqQ3OovLWhWfL-58" style="edgeStyle=orthogonalEdgeStyle;rounded=0;sketch=0;hachureGap=4;jiggle=2;curveFitting=1;orthogonalLoop=1;jettySize=auto;html=1;exitX=0.5;exitY=1;exitDx=0;exitDy=0;entryX=0.5;entryY=0;entryDx=0;entryDy=0;shadow=0;strokeColor=#000000;fontFamily=Architects Daughter;fontSource=https%3A%2F%2Ffonts.googleapis.com%2Fcss%3Ffamily%3DArchitects%2BDaughter;fontSize=12;fontColor=#FFFFFF;" edge="1" parent="1" source="QYrEDv9TqQ3OovLWhWfL-51" target="QYrEDv9TqQ3OovLWhWfL-57">
          <mxGeometry relative="1" as="geometry">
            <Array as="points">
              <mxPoint x="310" y="620" />
              <mxPoint x="310" y="620" />
            </Array>
          </mxGeometry>
        </mxCell>
        <mxCell id="QYrEDv9TqQ3OovLWhWfL-51" value="RM" style="rounded=0;whiteSpace=wrap;html=1;labelBorderColor=default;sketch=1;hachureGap=4;jiggle=2;curveFitting=1;fontFamily=Architects Daughter;fontSource=https%3A%2F%2Ffonts.googleapis.com%2Fcss%3Ffamily%3DArchitects%2BDaughter;fontSize=12;" vertex="1" parent="1">
          <mxGeometry x="290" y="540" width="40" height="30" as="geometry" />
        </mxCell>
        <mxCell id="QYrEDv9TqQ3OovLWhWfL-56" style="edgeStyle=orthogonalEdgeStyle;rounded=0;sketch=0;hachureGap=4;jiggle=2;curveFitting=1;orthogonalLoop=1;jettySize=auto;html=1;exitX=0.5;exitY=1;exitDx=0;exitDy=0;shadow=0;strokeColor=#000000;fontFamily=Architects Daughter;fontSource=https%3A%2F%2Ffonts.googleapis.com%2Fcss%3Ffamily%3DArchitects%2BDaughter;fontSize=12;fontColor=#FFFFFF;" edge="1" parent="1" source="QYrEDv9TqQ3OovLWhWfL-52" target="QYrEDv9TqQ3OovLWhWfL-55">
          <mxGeometry relative="1" as="geometry" />
        </mxCell>
        <mxCell id="QYrEDv9TqQ3OovLWhWfL-52" value="RM" style="rounded=0;whiteSpace=wrap;html=1;labelBorderColor=default;sketch=1;hachureGap=4;jiggle=2;curveFitting=1;fontFamily=Architects Daughter;fontSource=https%3A%2F%2Ffonts.googleapis.com%2Fcss%3Ffamily%3DArchitects%2BDaughter;fontSize=12;" vertex="1" parent="1">
          <mxGeometry x="290" y="360" width="40" height="30" as="geometry" />
        </mxCell>
        <mxCell id="QYrEDv9TqQ3OovLWhWfL-53" value="db" style="shape=datastore;whiteSpace=wrap;html=1;labelBorderColor=default;sketch=1;hachureGap=4;jiggle=2;curveFitting=1;strokeColor=#b85450;fontFamily=Architects Daughter;fontSource=https%3A%2F%2Ffonts.googleapis.com%2Fcss%3Ffamily%3DArchitects%2BDaughter;fontSize=12;fillColor=#f8cecc;gradientColor=#ea6b66;" vertex="1" parent="1">
          <mxGeometry x="290" y="230" width="40" height="50" as="geometry" />
        </mxCell>
        <mxCell id="QYrEDv9TqQ3OovLWhWfL-55" value="db" style="shape=datastore;whiteSpace=wrap;html=1;labelBorderColor=default;sketch=1;hachureGap=4;jiggle=2;curveFitting=1;strokeColor=#b85450;fontFamily=Architects Daughter;fontSource=https%3A%2F%2Ffonts.googleapis.com%2Fcss%3Ffamily%3DArchitects%2BDaughter;fontSize=12;fillColor=#f8cecc;gradientColor=#ea6b66;" vertex="1" parent="1">
          <mxGeometry x="290" y="410" width="40" height="50" as="geometry" />
        </mxCell>
        <mxCell id="QYrEDv9TqQ3OovLWhWfL-57" value="db" style="shape=datastore;whiteSpace=wrap;html=1;labelBorderColor=default;sketch=1;hachureGap=4;jiggle=2;curveFitting=1;strokeColor=#b85450;fontFamily=Architects Daughter;fontSource=https%3A%2F%2Ffonts.googleapis.com%2Fcss%3Ffamily%3DArchitects%2BDaughter;fontSize=12;fillColor=#f8cecc;gradientColor=#ea6b66;" vertex="1" parent="1">
          <mxGeometry x="290" y="585" width="40" height="50" as="geometry" />
        </mxCell>
        <mxCell id="QYrEDv9TqQ3OovLWhWfL-11" value="Seata Service" style="rounded=1;whiteSpace=wrap;html=1;sketch=1;curveFitting=1;jiggle=2;labelBackgroundColor=none;fillColor=#d5e8d4;strokeColor=#82b366;" vertex="1" parent="1">
          <mxGeometry x="707" y="141" width="120" height="439" as="geometry" />
        </mxCell>
        <mxCell id="QYrEDv9TqQ3OovLWhWfL-66" value="" style="shape=delay;whiteSpace=wrap;html=1;labelBorderColor=default;sketch=1;hachureGap=4;jiggle=2;curveFitting=1;strokeColor=#BAC8D3;fontFamily=Architects Daughter;fontSource=https%3A%2F%2Ffonts.googleapis.com%2Fcss%3Ffamily%3DArchitects%2BDaughter;fontSize=12;fontColor=#182E3E;fillColor=#B1DDF0;" vertex="1" parent="1">
          <mxGeometry x="940" y="130" width="80" height="40" as="geometry" />
        </mxCell>
      </root>
    </mxGraphModel>
  </diagram>
</mxfile>
